<svg
 xmlns="http://www.w3.org/2000/svg"
 xmlns:xlink="http://www.w3.org/1999/xlink"
 
 viewBox="0 0 550 550"
 width="250px"
 height="250px"
>
    
    <defs>
        
        <linearGradient id="grad1" x1="0%" y1="0%" x2="100%" y2="0%">
            <stop offset="0%" style="stop-color:rgb(255,255,0);stop-opacity:1" />
            <stop offset="100%" style="stop-color:rgb(255,0,0);stop-opacity:1" />
        </linearGradient>
        
        <g id="ikon" fill-rule="evenodd">
    
            <path d="M 413 134 L 399 137 L 399 137 L 327 342 L 327 342 L 336 342 L 365 258 L 433 251 L 410 346 L 417 349 L 417 349 L 468 125 L 468 125 L 468 125 L 468 125 L 468 125 L 451 128 L 450 110 L 422 118 Z  M 458 142 L 439 225 L 373 234 L 401 153 L 458 142 Z"
            fill="var(--tower-color, var(--yacht-color, #000))"
            />
                
            <path d="M 475 495 L 469 495 L 463 494 L 255 0 Z M 334 342 L 210 25 L 326 340 Z"
            fill="var(--rod-color, var(--yacht-color, #000))"
            />
        
            <path d="M 372 453 L 399 350 C 356 335 309 337 260 356 L 237 380 L 193 390 L 160 416 Z"
            style="visibility:var(--window-visibility, hidden)"
            fill="var(--window-color, #eee)"
            />
        
            <path d="M 355 428 L 346 400 C 314 382 272 378 193 390 C 251 369 307 364 382 374 L 377 356 Q 337 332 260 356 Q 329 321 412 347 C 414 347 416 348 417 349 L 386 486 L 475 495 L 500 550 L 128 550 Q 60 413 26 404 L45 384 Z"
            fill="var(--hull-color, var(--yacht-color, #000))"
            />
             
        </g>
    </defs>
    <g>
        <title>
    #ikon :::
    
    --yacht-color : [color];
    --hull-color : [color];
    --rod-color : [color];
    --tower-color : [color];
    --window-color : [color];
    --window-visibility : [visibility];
    
    ~queviva
        </title>
        <use xlink:href="#ikon" />
    </g>
</svg>