<svg
 xmlns="http://www.w3.org/2000/svg"
 xmlns:xlink="http://www.w3.org/1999/xlink"
 
 viewBox="0 0 550 550"
 width="250px"
 height="250px"
>
    
    <defs>
        <g id="ikon" fill-rule="evenodd">
    
            <path d="M 413 134 L 399 137 L 327 342 L 336 342 L 365 257
            L 433 249 L 410 347 L 417 349
            L 468 124 L 451 127
            V 110
            L 422 118 Z
            
            M 458 142 L 439 225 L 373 234 L 401 153 Z"
            fill="var(--tower-color, var(--yacht-color, #000))"
            />
                
            <path d="M 257 0 L 475 495 L 463 495 Z M 334 342 L 210 25 L 326 340 Z"
            fill="var(--rod-color, var(--yacht-color, #000))"
            />
            
            <path d="M 372 453 L 399 350 C 356 335 309 337 260 356 L 237 380 L 193 390 L 160 416 Z"
            style="visibility:var(--window-visibility, hidden)"
            fill="var(--window-color, #eee)"
            />
        
            <path d="M 45 384 L 355 428 L 346 400 Q 275 372 193 390 Q 270 355 382 374 L 377 356 Q 337 332 260 356 Q 329 321 412 347 L 417 349 L 386 486 L 475 495 L 500 550 L 128 550 Q 60 413 26 404 Z"
            fill="var(--hull-color, var(--yacht-color, #000))"
            />
             
        </g>
    </defs>
    <g>
        <title>
    #ikon :::
    
    --yacht-color : [color];
    --hull-color : [color];
    --rod-color : [color];
    --tower-color : [color];
    --window-color : [color];
    --window-visibility : [visibility];
    
    ~queviva
        </title>
        <use xlink:href="#ikon" />
    </g>
    `
</svg>